<!-- Generated by IcoMoon.io -->
<svg version="1.1" xmlns="http://www.w3.org/2000/svg" width="38" height="32" viewBox="0 0 38 32">
<title>twitter</title>
<path fill="#f4f4fd" d="M38.4 4.093c-1.427 0.627-2.949 1.042-4.536 1.245 1.633-0.981 2.859-2.495 3.448-4.298l0.016-0.055c-1.437 0.867-3.109 1.528-4.891 1.889l-0.101 0.017c-1.44-1.536-3.482-2.493-5.747-2.493-4.347 0-7.87 3.524-7.87 7.87 0 0.002 0 0.005 0 0.007v-0c0 0.624 0.053 1.222 0.182 1.794-6.546-0.318-12.336-3.456-16.227-8.234-0.675 1.14-1.075 2.513-1.077 3.979v0.001c0 2.726 1.403 5.142 3.496 6.542-1.311-0.036-2.531-0.39-3.596-0.988l0.039 0.020v0.086c0.005 3.797 2.685 6.966 6.255 7.725l0.052 0.009c-0.64 0.176-1.339 0.259-2.064 0.259-0.039 0.001-0.085 0.001-0.132 0.001-0.481 0-0.951-0.049-1.404-0.142l0.045 0.008c1.021 3.117 3.915 5.408 7.357 5.483-2.657 2.094-6.054 3.358-9.745 3.358-0.005 0-0.011 0-0.016 0h0.001c-0.646 0-1.266-0.029-1.885-0.109 3.392 2.215 7.544 3.533 12.005 3.533 0.025 0 0.050-0 0.076-0h-0.004c14.486 0 22.406-12 22.406-22.402 0-0.347-0.013-0.683-0.029-1.018 1.559-1.125 2.869-2.48 3.91-4.031l0.036-0.057z"></path>
</svg>
